<svg width="32" height="32" viewBox="0 0 32 32" fill="none" xmlns="http://www.w3.org/2000/svg">
  <defs>
    <linearGradient id="cybersecGrad" x1="0%" y1="0%" x2="100%" y2="100%">
      <stop offset="0%" style="stop-color:#00d4aa;stop-opacity:1" />
      <stop offset="50%" style="stop-color:#0891b2;stop-opacity:1" />
      <stop offset="100%" style="stop-color:#1e40af;stop-opacity:1" />
    </linearGradient>
    <linearGradient id="lockGrad" x1="0%" y1="0%" x2="100%" y2="100%">
      <stop offset="0%" style="stop-color:#fbbf24;stop-opacity:1" />
      <stop offset="100%" style="stop-color:#f59e0b;stop-opacity:1" />
    </linearGradient>
  </defs>
  
  <!-- Hexagonal shield background -->
  <path d="M16 2L26 8V16C26 23 21 28 16 30C11 28 6 23 6 16V8L16 2Z" fill="url(#cybersecGrad)" stroke="#00d4aa" stroke-width="0.5"/>
  
  <!-- Digital grid pattern -->
  <defs>
    <pattern id="grid" width="4" height="4" patternUnits="userSpaceOnUse">
      <path d="M 4 0 L 0 0 0 4" fill="none" stroke="#00d4aa" stroke-width="0.3" opacity="0.3"/>
    </pattern>
  </defs>
  <rect x="6" y="8" width="20" height="14" fill="url(#grid)"/>
  
  <!-- Lock symbol -->
  <rect x="13" y="16" width="6" height="6" rx="1" fill="url(#lockGrad)"/>
  <path d="M14 16V13C14 11.9 14.9 11 16 11C17.1 11 18 11.9 18 13V16" stroke="url(#lockGrad)" stroke-width="1.5" fill="none"/>
  
  <!-- Scanning eye -->
  <ellipse cx="16" cy="10" rx="4" ry="2" fill="#00d4aa" opacity="0.8"/>
  <circle cx="16" cy="10" r="1.5" fill="#ffffff"/>
  <circle cx="16" cy="10" r="0.5" fill="#1e40af"/>
  
  <!-- Binary code elements -->
  <text x="8" y="26" font-family="monospace" font-size="2" fill="#00d4aa" opacity="0.6">101</text>
  <text x="21" y="26" font-family="monospace" font-size="2" fill="#00d4aa" opacity="0.6">011</text>
  
  <!-- Circuit nodes -->
  <circle cx="10" cy="12" r="0.8" fill="#fbbf24"/>
  <circle cx="22" cy="12" r="0.8" fill="#fbbf24"/>
  <circle cx="10" cy="20" r="0.8" fill="#fbbf24"/>
  <circle cx="22" cy="20" r="0.8" fill="#fbbf24"/>
  
  <!-- Connection lines -->
  <path d="M10 12L13 16M22 12L19 16M10 20L13 16M22 20L19 16" stroke="#00d4aa" stroke-width="0.5" opacity="0.6"/>
  
  <!-- Security scanning rays -->
  <path d="M16 8L16 6M14 9L13 7.5M18 9L19 7.5" stroke="#00d4aa" stroke-width="1" opacity="0.8"/>
</svg>
